<svg xmlns="http://www.w3.org/2000/svg" xmlns:xlink="http://www.w3.org/1999/xlink" fill="none" version="1.1" width="32" height="32" viewBox="0 0 32 32"><defs><clipPath id="master_svg0_1_0513"><rect x="0" y="0" width="32" height="32" rx="0"/></clipPath></defs><g clip-path="url(#master_svg0_1_0513)"><g><rect x="0" y="0" width="32" height="32" rx="0" fill="#FFFFFF" fill-opacity="0.009999999776482582"/></g><g></g><g><path d="M4.9999559765625,28Q4.9999559765625,28.0985,5.0191759765625,28.1951Q5.0383859765625,28.2917,5.0760759765625,28.3827Q5.1137659765625,28.4737,5.168485976562501,28.5556Q5.2232059765625,28.6375,5.2928559765625,28.7071Q5.3624959765625,28.7767,5.4443859765625,28.8315Q5.5262859765625,28.8862,5.6172759765624996,28.9239Q5.7082659765625,28.9616,5.8048659765625,28.9808Q5.9014659765625,29,5.9999559765625,29L25.9999259765625,29Q26.0984259765625,29,26.1950259765625,28.9808Q26.2916259765625,28.9616,26.3826259765625,28.9239Q26.4736259765625,28.8862,26.5555259765625,28.8315Q26.6374259765625,28.7767,26.7070259765625,28.7071Q26.7767259765625,28.6375,26.8314259765625,28.5556Q26.8861259765625,28.4737,26.9238259765625,28.3827Q26.9615259765625,28.2917,26.9807259765625,28.1951Q26.9999259765625,28.0985,26.9999259765625,28L26.9999259765625,14.0806L28.7086259765625,15.4475Q28.8639259765625,15.5718,29.0549259765625,15.6272Q29.2460259765625,15.6825,29.4437259765625,15.6606Q29.6414259765625,15.6386,29.8156259765625,15.5426Q29.9899259765625,15.4467,30.1141259765625,15.2914Q30.1757259765625,15.2145,30.2210259765625,15.127Q30.2663259765625,15.0396,30.2938259765625,14.945Q30.3212259765625,14.8504,30.3296259765625,14.7523Q30.3380259765625,14.6541,30.3271259765625,14.5562Q30.3163259765625,14.4583,30.2865259765625,14.3645Q30.2567259765625,14.2706,30.2092259765625,14.1843Q30.1617259765625,14.098,30.0983259765625,14.0227Q30.0349259765625,13.94732,29.9580259765625,13.8858L26.6246259765625,11.21913L26.6241259765625,11.21875L16.6246259765625,3.219131Q16.5586259765625,3.1663170000000003,16.4847259765625,3.125337Q16.4107259765625,3.084356,16.3309259765625,3.056372Q16.251225976562502,3.028387,16.1678259765625,3.014194Q16.0845259765625,3,15.9999259765625,3Q15.9154259765625,3,15.8320259765625,3.014194Q15.7487259765625,3.028387,15.6689259765625,3.056372Q15.5892259765625,3.084356,15.5152259765625,3.125337Q15.4413259765625,3.1663170000000003,15.3752259765625,3.219131L5.3757159765625,11.21877L5.3752659765625,11.21913L2.0419309765625,13.8858Q1.8866059765625,14.0101,1.7906579765625001,14.1843Q1.6947089765625,14.3585,1.6727419765625,14.5562Q1.6507759765625,14.7539,1.7061369765625,14.945Q1.7614979765625,15.136,1.8857569765625,15.2914Q2.0100169765625,15.4467,2.1842579765625,15.5426Q2.3584989765625,15.6386,2.5561949765625,15.6606Q2.7538902765625,15.6825,2.9449429765625,15.6272Q3.1359969765624998,15.5718,3.2913209765625,15.4475L4.9999559765625,14.0806L4.9999559765625,28ZM6.9999559765625,12.48063L15.9999259765625,5.28062L24.9999259765625,12.48062L24.9999259765625,27L6.9999559765625,27L6.9999559765625,12.48063Z" fill-rule="evenodd" fill="#999999" fill-opacity="1"/></g><g><path d="M11.6666259765625,27.999921953125L11.6666259765625,19.333251953125Q11.6666259765625,19.234760553125,11.685840976562499,19.138161953125Q11.7050559765625,19.041562953125,11.7427469765625,18.950568953125Q11.7804379765625,18.859573953125,11.8351559765625,18.777681953125Q11.8898749765625,18.695788953125,11.9595189765625,18.626144953125Q12.0291629765625,18.556500953125,12.1110559765625,18.501781953125Q12.1929479765625,18.447063953125,12.2839429765625,18.409372953125Q12.3749369765625,18.371681953124998,12.4715359765625,18.352466953125Q12.5681345765625,18.333251953125,12.6666259765625,18.333251953125L19.3332959765625,18.333251953125Q19.4317859765625,18.333251953125,19.5283859765625,18.352466953125Q19.6249859765625,18.371681953124998,19.7159759765625,18.409372953125Q19.806965976562502,18.447063953125,19.8888659765625,18.501781953125Q19.9707559765625,18.556500953125,20.0403959765625,18.626144953125Q20.1100459765625,18.695788953125,20.1647659765625,18.777681953125Q20.2194759765625,18.859573953125,20.2571759765625,18.950568953125Q20.294865976562498,19.041562953125,20.3140759765625,19.138161953125Q20.3332959765625,19.234760553125,20.3332959765625,19.333251953125L20.3332959765625,27.999921953125Q20.3332959765625,28.098411953125,20.3140759765625,28.195011953125Q20.294865976562498,28.291611953125,20.2571759765625,28.382601953125Q20.2194859765625,28.473591953125002,20.1647659765625,28.555491953125Q20.1100459765625,28.637381953125,20.0403959765625,28.707021953125Q19.9707559765625,28.776671953125,19.8888659765625,28.831391953125Q19.806965976562502,28.886101953125,19.7159759765625,28.923801953125Q19.6249859765625,28.961491953124998,19.5283859765625,28.980701953125Q19.4317859765625,28.999921953125,19.3332959765625,28.999921953125L12.6666259765625,28.999921953125Q12.5681345765625,28.999921953125,12.4715359765625,28.980701953125Q12.3749369765625,28.961491953124998,12.2839429765625,28.923801953125Q12.1929479765625,28.886111953125003,12.1110559765625,28.831391953125Q12.0291629765625,28.776671953125,11.9595189765625,28.707021953125Q11.8898749765625,28.637381953125,11.8351559765625,28.555491953125Q11.7804379765625,28.473591953125002,11.7427469765625,28.382601953125Q11.7050559765625,28.291611953125,11.685840976562499,28.195011953125Q11.6666259765625,28.098411953125,11.6666259765625,27.999921953125ZM18.3332959765625,20.333251953125L13.6666259765625,20.333251953125L13.6666259765625,26.999921953125L18.3332959765625,26.999921953125L18.3332959765625,20.333251953125Z" fill-rule="evenodd" fill="#999999" fill-opacity="1"/></g><g><path d="M6,29L26,29Q26.0985,29,26.1951,28.980785Q26.2917,28.961570000000002,26.3827,28.923879Q26.4737,28.886188,26.5556,28.83147Q26.6375,28.776751,26.7071,28.707107Q26.7767,28.637463,26.8315,28.55557Q26.8862,28.473678,26.9239,28.382683Q26.9616,28.291689,26.9808,28.19509Q27,28.0984914,27,28Q27,27.9015086,26.9808,27.80491Q26.9616,27.708311,26.9239,27.617317Q26.8862,27.526322,26.8315,27.44443Q26.7767,27.362537,26.7071,27.292893Q26.6375,27.223249,26.5556,27.16853Q26.4737,27.113812,26.3827,27.076121Q26.2917,27.038429999999998,26.1951,27.019215Q26.0985,27,26,27L6,27Q5.9015086,27,5.80491,27.019215Q5.708311,27.038429999999998,5.617317,27.076121Q5.526322,27.113812,5.44443,27.16853Q5.362537,27.223249,5.292893,27.292893Q5.223249,27.362537,5.16853,27.44443Q5.113812,27.526322,5.076121,27.617317Q5.03843,27.708311,5.019215,27.80491Q5,27.9015086,5,28Q5,28.0984914,5.019215,28.19509Q5.03843,28.291689,5.076121,28.382683Q5.113812,28.473678,5.16853,28.55557Q5.223249,28.637463,5.292893,28.707107Q5.362537,28.776751,5.44443,28.83147Q5.526322,28.886188,5.617317,28.923879Q5.708311,28.961570000000002,5.80491,28.980785Q5.9015086,29,6,29Z" fill-rule="evenodd" fill="#999999" fill-opacity="1"/></g></g></svg>